<?xml version="1.0" encoding="UTF-8"?>
<svg width="18px" height="16px" viewBox="0 0 18 16" version="1.1" xmlns="http://www.w3.org/2000/svg" xmlns:xlink="http://www.w3.org/1999/xlink">
    <!-- Generator: Sketch 58 (84663) - https://sketch.com -->
    <title>Group</title>
    <desc>Created with Sketch.</desc>
    <g id="Page-1" stroke="none" stroke-width="1" fill="none" fill-rule="evenodd">
        <g id="PRODUCT-DETAILS" transform="translate(-639.000000, -3026.000000)" fill="#E74C3C">
            <g id="Group-18-Copy" transform="translate(121.000000, 2608.000000)">
                <g id="Group-10-Copy" transform="translate(302.000000, 73.000000)">
                    <g id="Group-8" transform="translate(213.000000, 340.000000)">
                        <g id="Group" transform="translate(3.000000, 5.000000)">
                            <path d="M17.9250117,2.20001289 C17.8499883,2.13127357 17.775,2.06250201 17.6249883,2.06250201 L3.375,2.06250201 L2.99998828,0.274989526 C2.99998828,0.13747865 2.77498828,0 2.62501172,0 L0.375011719,0 C0.150011719,0 0,0.137510876 0,0.343761078 C0,0.549979053 0.150011719,0.687489929 0.375011719,0.687489929 L2.32502344,0.687489929 L4.12498828,9.07500886 C4.34998828,10.1750314 5.47498828,11 6.67501172,11 L15.3,11 C15.525,11 15.6750117,10.8624891 15.6750117,10.6562711 C15.6750117,10.4500209 15.525,10.3125101 15.3,10.3125101 L6.75,10.3125101 C6.14998828,10.3125101 5.55001172,10.0375205 5.24998828,9.55624859 L16.2,8.18126873 C16.3500117,8.18126873 16.4999883,8.04375786 16.4999883,7.90624698 L18,2.40626309 C18,2.40626309 18,2.26875222 17.9250117,2.20001289 L17.9250117,2.20001289 Z" id="Fill-1"></path>
                            <path d="M5.99998125,12 C4.88000975,12 4,12.8799805 4,14 C4,15.1200195 4.88000975,16 5.99998125,16 C7.11999025,16 8,15.1200195 8,14 C8,12.8799805 7.11999025,12 5.99998125,12 L5.99998125,12 Z" id="Fill-4"></path>
                            <path d="M14.0000187,12 C12.8800097,12 12,12.8799805 12,14 C12,15.1200195 12.8800097,16 14.0000187,16 C15.1199903,16 16,15.1200195 16,14 C16,12.8799805 15.1199903,12 14.0000187,12 L14.0000187,12 Z" id="Fill-5"></path>
                        </g>
                    </g>
                </g>
            </g>
        </g>
    </g>
</svg>