<?xml version="1.0" encoding="UTF-8"?>
<svg width="24px" height="22px" viewBox="0 0 24 22" version="1.1" xmlns="http://www.w3.org/2000/svg" xmlns:xlink="http://www.w3.org/1999/xlink">
    <!-- Generator: Sketch 58 (84663) - https://sketch.com -->
    <title>Cart white</title>
    <desc>Created with Sketch.</desc>
    <g id="Page-1" stroke="none" stroke-width="1" fill="none" fill-rule="evenodd">
        <g id="Payment" transform="translate(-149.000000, -622.000000)" fill="#FFFFFF">
            <g id="Cart-white" transform="translate(149.000000, 622.000000)">
                <path d="M20.7753692,10.5668766 L6.40001538,12.3920468 L4.62770769,3.74643275 L22.4492308,3.74643275 L20.7753692,10.5668766 Z M23.5323231,3.07401111 C23.4338308,2.97796374 23.3353846,2.88187135 23.1384462,2.88187135 L4.43076923,2.88187135 L3.93844615,0.384234503 C3.93844615,0.192094737 3.64306154,1.77635684e-15 3.44616923,1.77635684e-15 L0.492323077,1.77635684e-15 C0.196938462,1.77635684e-15 -2.73558953e-13,0.192139766 -2.73558953e-13,0.480326901 C-2.73558953e-13,0.768469006 0.196938462,0.960608772 0.492323077,0.960608772 L3.05233846,0.960608772 L5.41536923,12.6802339 C5.71075385,14.217262 7.18767692,15.3699655 8.76309231,15.3699655 L20.0861538,15.3699655 C20.3815385,15.3699655 20.5784769,15.1778257 20.5784769,14.8896836 C20.5784769,14.6014965 20.3815385,14.4093567 20.0861538,14.4093567 L8.86153846,14.4093567 C8.07383077,14.4093567 7.28616923,14.0251222 6.89229231,13.3526556 L21.2676923,11.431438 C21.4646308,11.431438 21.6615231,11.2392982 21.6615231,11.0471585 L23.6307692,3.36219825 C23.6307692,3.36219825 23.6307692,3.17005848 23.5323231,3.07401111 L23.5323231,3.07401111 Z" id="Fill-1"></path>
                <path d="M8.49228346,20.2099751 C7.66524143,20.2099751 6.94151908,19.4912719 6.94151908,18.6699655 C6.94151908,17.8486591 7.66524143,17.1299559 8.49228346,17.1299559 C9.31937395,17.1299559 10.0430478,17.8486591 10.0430478,18.6699655 C10.0430478,19.4912719 9.31937395,20.2099751 8.49228346,20.2099751 Z M8.49228346,16.1032988 C7.04493568,16.1032988 5.90769231,17.2326071 5.90769231,18.6699655 C5.90769231,20.1073239 7.04493568,21.2366322 8.49228346,21.2366322 C9.93967971,21.2366322 11.0769231,20.1073239 11.0769231,18.6699655 C11.0769231,17.2326071 9.93967971,16.1032988 8.49228346,16.1032988 L8.49228346,16.1032988 Z" id="Fill-4"></path>
                <path d="M18.0923319,20.2099751 C17.2652414,20.2099751 16.5415675,19.4912719 16.5415675,18.6699655 C16.5415675,17.8486591 17.2652414,17.1299559 18.0923319,17.1299559 C18.919374,17.1299559 19.6430963,17.8486591 19.6430963,18.6699655 C19.6430963,19.4912719 18.919374,20.2099751 18.0923319,20.2099751 Z M18.0923319,16.1032988 C16.6449357,16.1032988 15.5076923,17.2326071 15.5076923,18.6699655 C15.5076923,20.1073239 16.6449357,21.2366322 18.0923319,21.2366322 C19.5396797,21.2366322 20.6769231,20.1073239 20.6769231,18.6699655 C20.6769231,17.2326071 19.5396797,16.1032988 18.0923319,16.1032988 L18.0923319,16.1032988 Z" id="Fill-5"></path>
            </g>
        </g>
    </g>
</svg>