<?xml version="1.0" encoding="UTF-8"?>
<svg width="24px" height="20px" viewBox="0 0 24 20" version="1.1" xmlns="http://www.w3.org/2000/svg" xmlns:xlink="http://www.w3.org/1999/xlink">
    <!-- Generator: Sketch 58 (84663) - https://sketch.com -->
    <title>heart black</title>
    <desc>Created with Sketch.</desc>
    <g id="Page-1" stroke="none" stroke-width="1" fill="none" fill-rule="evenodd">
        <g id="Payment" transform="translate(-149.000000, -558.000000)" fill="#0E2E37">
            <path d="M170.149206,568.337511 L161.883361,576.439286 C161.402846,576.910252 160.620971,576.910252 160.140502,576.43924 L151.820985,568.284257 C150.796578,567.280156 150.232438,565.945092 150.232438,564.524933 C150.232438,563.104819 150.796578,561.769709 151.820985,560.765562 C152.845579,559.761185 154.207813,559.208018 155.656579,559.208018 C157.104829,559.208018 158.466736,559.761185 159.491377,560.765562 L160.141345,561.402676 L159.146048,562.379071 C158.905486,562.615059 158.905673,562.997438 159.146377,563.233289 C159.266705,563.3511 159.424252,563.410005 159.581892,563.410005 C159.73972,563.410005 159.897455,563.350962 160.01783,563.232922 L162.533049,560.765516 C163.55769,559.761094 164.919831,559.208018 166.368643,559.208018 C167.839956,559.208018 169.217472,559.776624 170.24741,560.809167 C172.31441,562.881236 172.270301,566.258457 170.149206,568.337511 Z M171.128753,559.964597 C169.865003,558.69772 168.174597,558 166.368737,558 C164.590768,558 162.919112,558.678835 161.661502,559.911527 L161.012518,560.548182 L160.362877,559.911389 C159.105455,558.678835 157.434079,558 155.656579,558 C153.878563,558 152.206907,558.678835 150.949532,559.911389 C149.692344,561.143622 149,562.782126 149,564.524933 C149,566.267739 149.692344,567.906243 150.949532,569.138522 L159.269002,577.293458 C159.749564,577.764471 160.380689,578 161.011955,578 C161.64308,578 162.274346,577.764471 162.754815,577.293504 L171.020707,569.191821 C173.616926,566.646901 173.665394,562.507633 171.128753,559.964597 L171.128753,559.964597 Z" id="heart-black"></path>
        </g>
    </g>
</svg>