<?xml version="1.0" encoding="UTF-8"?>
<svg width="24px" height="22px" viewBox="0 0 24 22" version="1.1" xmlns="http://www.w3.org/2000/svg" xmlns:xlink="http://www.w3.org/1999/xlink">
    <!-- Generator: Sketch 55.2 (78181) - https://sketchapp.com -->
    <title>cart</title>
    <desc>Created with Sketch.</desc>
    <g id="Page-1" stroke="none" stroke-width="1" fill="none" fill-rule="evenodd">
        <g id="Artboard" transform="translate(-23.000000, -70.000000)">
            <g id="cart" transform="translate(19.000000, 64.000000)">
                <rect id="Rectangle-Copy-13" x="0" y="0" width="32" height="32" rx="4"></rect>
                <path d="M24.7753692,16.5668766 L10.4000154,18.3920468 L8.62770769,9.74643275 L26.4492308,9.74643275 L24.7753692,16.5668766 Z M27.5323231,9.07401111 C27.4338308,8.97796374 27.3353846,8.88187135 27.1384462,8.88187135 L8.43076923,8.88187135 L7.93844615,6.3842345 C7.93844615,6.19209474 7.64306154,6 7.44616923,6 L4.49232308,6 C4.19693846,6 4,6.19213977 4,6.4803269 C4,6.76846901 4.19693846,6.96060877 4.49232308,6.96060877 L7.05233846,6.96060877 L9.41536923,18.6802339 C9.71075385,20.217262 11.1876769,21.3699655 12.7630923,21.3699655 L24.0861538,21.3699655 C24.3815385,21.3699655 24.5784769,21.1778257 24.5784769,20.8896836 C24.5784769,20.6014965 24.3815385,20.4093567 24.0861538,20.4093567 L12.8615385,20.4093567 C12.0738308,20.4093567 11.2861692,20.0251222 10.8922923,19.3526556 L25.2676923,17.431438 C25.4646308,17.431438 25.6615231,17.2392982 25.6615231,17.0471585 L27.6307692,9.36219825 C27.6307692,9.36219825 27.6307692,9.17005848 27.5323231,9.07401111 L27.5323231,9.07401111 Z" id="Fill-1-Copy" fill="#95A5A6"></path>
                <path d="M12.4922835,26.2099751 C11.6652414,26.2099751 10.9415191,25.4912719 10.9415191,24.6699655 C10.9415191,23.8486591 11.6652414,23.1299559 12.4922835,23.1299559 C13.319374,23.1299559 14.0430478,23.8486591 14.0430478,24.6699655 C14.0430478,25.4912719 13.319374,26.2099751 12.4922835,26.2099751 Z M12.4922835,22.1032988 C11.0449357,22.1032988 9.90769231,23.2326071 9.90769231,24.6699655 C9.90769231,26.1073239 11.0449357,27.2366322 12.4922835,27.2366322 C13.9396797,27.2366322 15.0769231,26.1073239 15.0769231,24.6699655 C15.0769231,23.2326071 13.9396797,22.1032988 12.4922835,22.1032988 L12.4922835,22.1032988 Z" id="Fill-4-Copy" fill="#95A5A6"></path>
                <path d="M22.0923319,26.2099751 C21.2652414,26.2099751 20.5415675,25.4912719 20.5415675,24.6699655 C20.5415675,23.8486591 21.2652414,23.1299559 22.0923319,23.1299559 C22.919374,23.1299559 23.6430963,23.8486591 23.6430963,24.6699655 C23.6430963,25.4912719 22.919374,26.2099751 22.0923319,26.2099751 Z M22.0923319,22.1032988 C20.6449357,22.1032988 19.5076923,23.2326071 19.5076923,24.6699655 C19.5076923,26.1073239 20.6449357,27.2366322 22.0923319,27.2366322 C23.5396797,27.2366322 24.6769231,26.1073239 24.6769231,24.6699655 C24.6769231,23.2326071 23.5396797,22.1032988 22.0923319,22.1032988 L22.0923319,22.1032988 Z" id="Fill-5-Copy" fill="#95A5A6"></path>
            </g>
        </g>
    </g>
</svg>