<?xml version="1.0" encoding="UTF-8"?>
<svg width="24px" height="20px" viewBox="0 0 24 20" version="1.1" xmlns="http://www.w3.org/2000/svg" xmlns:xlink="http://www.w3.org/1999/xlink">
    <!-- Generator: Sketch 55.2 (78181) - https://sketchapp.com -->
    <title>love</title>
    <desc>Created with Sketch.</desc>
    <g id="Page-1" stroke="none" stroke-width="1" fill="none" fill-rule="evenodd">
        <g id="Artboard" transform="translate(-63.000000, -70.000000)">
            <g id="love" transform="translate(59.000000, 64.000000)">
                <rect id="Rectangle-Copy-12" x="0" y="0" width="32" height="32" rx="4"></rect>
                <path d="M25.1492064,16.3375108 L16.8833614,24.4392855 C16.4028457,24.9102521 15.6209706,24.9102521 15.1405017,24.4392396 L6.82098482,16.2842571 C5.79657841,15.2801562 5.23243769,13.9450922 5.23243769,12.5249325 C5.23243769,11.1048188 5.79657841,9.7697088 6.82098482,8.765562 C7.84557873,7.76118546 9.20781332,7.20801792 10.6565792,7.20801792 C12.1048294,7.20801792 13.4667359,7.76118546 14.4913766,8.765562 L15.1413455,9.40267647 L14.1460485,10.3790707 C13.9054859,10.6150594 13.9056734,10.9974384 14.1463766,11.2332893 C14.2667047,11.3510999 14.4242516,11.4100052 14.5818923,11.4100052 C14.7397204,11.4100052 14.8974548,11.350962 15.0178298,11.2329217 L17.533049,8.76551605 C18.5576898,7.76109356 19.9198306,7.20801792 21.3686433,7.20801792 C22.8399561,7.20801792 24.2174719,7.77662397 25.2474096,8.80916662 C27.3144099,10.881236 27.2703005,14.2584573 25.1492064,16.3375108 Z M26.1287535,7.96459709 C24.8650033,6.69771983 23.1745968,6 21.3687371,6 C19.5907681,6 17.9191116,6.67883522 16.661502,7.9115272 L16.0125175,8.54818218 L15.3628768,7.91138935 C14.1054547,6.67883522 12.4340794,6 10.6565792,6 C8.87856326,6 7.20690675,6.67883522 5.94953156,7.91138935 C4.69234386,9.14362185 4,10.7821262 4,12.5249325 C4,14.2677388 4.69234386,15.9062432 5.94953156,17.1385216 L14.2690016,25.2934582 C14.7495642,25.7644707 15.3806893,26 16.011955,26 C16.6430801,26 17.2743458,25.7644707 17.7548147,25.2935041 L26.0207066,17.1918213 C28.6169257,14.6469014 28.6653945,10.5076331 26.1287535,7.96459709 L26.1287535,7.96459709 Z" id="Fill-1-Copy-2" fill="#95A5A6"></path>
            </g>
        </g>
    </g>
</svg>