<svg xmlns="http://www.w3.org/2000/svg" xmlns:xlink="http://www.w3.org/1999/xlink" width="350" height="90" viewBox="0 0 350 90">
  <defs>
    <clipPath id="clip-path">
      <rect id="Rectangle_45" data-name="Rectangle 45" width="350" height="90" transform="translate(-2437 -42)" fill="#fff" stroke="#707070" stroke-width="1"/>
    </clipPath>
  </defs>
  <g id="Mask_Group_4" data-name="Mask Group 4" transform="translate(2437 42)" clip-path="url(#clip-path)">
    <g id="Group_12" data-name="Group 12" transform="translate(-2437 -27.98)">
      <path id="Path_24" data-name="Path 24" d="M0,1.994c2.214.013,4.43-.039,6.64.067a13.388,13.388,0,0,1,3.559.616c2.45.82,3.6,2.945,3.269,5.7-.242,2.038-1.74,3.345-4.224,3.7-.174.024-.343.073-.721.157L13.563,21.2c-1.289,0-2.413.019-3.538-.019a.831.831,0,0,1-.553-.412q-2.391-4.483-4.739-8.989c-.028-.056,0-.137,0-.208,4.441-.753,5.805-2.025,5.292-4.941-.478-2.72-2.86-3.962-6.5-3.291V4.68c0,5.071-.026,10.143.021,15.212.009,1.013-.251,1.431-1.309,1.334A17,17,0,0,0,0,21.3Z" transform="translate(0 -1.581)" fill="#ed1c24"/>
      <path id="Path_25" data-name="Path 25" d="M757.194,0c.581.159,1.165.3,1.742.476A9.842,9.842,0,0,1,765.923,10.5a9.886,9.886,0,0,1-7.691,9.388,9.654,9.654,0,0,1-10.943-5.372c-2.574-5.717.06-12.91,7.075-14.3A2.1,2.1,0,0,0,754.832,0Zm-7.127,10.091a11.065,11.065,0,0,0,1.349,5.876c2.31,4.018,7.167,4.08,9.353,0a12.245,12.245,0,0,0,.049-11.728,5.008,5.008,0,0,0-4.8-3.025,5.282,5.282,0,0,0-4.664,3.094A11.1,11.1,0,0,0,750.067,10.091Z" transform="translate(-586.213 -0.016)" fill="#ed1c24"/>
      <path id="Path_26" data-name="Path 26" d="M1321.03-.008c.543.154,1.088.3,1.63.461,4.7,1.371,7.371,5.543,6.947,10.838a9.726,9.726,0,0,1-8.806,8.774,9.627,9.627,0,0,1-10.1-6.5c-2-6.054,1.272-12.28,7.605-13.387a1.384,1.384,0,0,0,.369-.193Q1319.851-.007,1321.03-.008Zm-7.174,9.971A11.313,11.313,0,0,0,1315.225,16c2.3,3.96,7.105,4.033,9.293.009a11.967,11.967,0,0,0-.006-11.9c-2.15-3.975-6.927-3.934-9.242-.054A10.985,10.985,0,0,0,1313.856,9.964Z" transform="translate(-1029.055 -0.008)" fill="#ed1c24"/>
      <path id="Path_27" data-name="Path 27" d="M860.927,0c.7.232,1.422.42,2.1.7a7.231,7.231,0,0,1,3.58,3.233c-.311.238-.6.463-.963.74-.273-.393-.5-.738-.747-1.073a5.508,5.508,0,0,0-9.354.324,12.109,12.109,0,0,0-.255,11.906c1.4,2.8,5.2,3.636,7.912,2.01a1.4,1.4,0,0,0,.785-1.373c-.045-1.854-.015-3.707-.015-5.642h3.139c0,2.029.009,4.055-.015,6.078a.865.865,0,0,1-.317.521c-4.552,3.99-11.263,3.364-14.451-.785-3.6-4.683-2.375-12.333,2.572-15.292A21.1,21.1,0,0,1,858.352,0Z" transform="translate(-667.849 -0.016)" fill="#ed1c24"/>
      <path id="Path_28" data-name="Path 28" d="M1180.369,0a17.475,17.475,0,0,1,2.8,1.249,12.705,12.705,0,0,1,1.922,2l-1.21.886c-.33-.5-.588-.959-.916-1.364a3.686,3.686,0,0,0-4.263-1.079,3.2,3.2,0,0,0-1.809,3.535A3.378,3.378,0,0,0,1179,7.742c1.354.717,2.752,1.349,4.091,2.09a4.447,4.447,0,0,1,2.218,2.759c1.2,4.254-2.394,8.111-7,7.472a6.145,6.145,0,0,1-4.87-3.053l1.169-.856c-.088.114-.178.225-.266.339.631.461,1.255.931,1.894,1.379a3.631,3.631,0,0,0,3.941.358,2.942,2.942,0,0,0,1.738-3.162,4.179,4.179,0,0,0-1.141-2.293,14.692,14.692,0,0,0-2.875-1.808c-.493-.281-1.047-.453-1.551-.719-2.216-1.171-3.184-2.817-2.956-4.986a5.465,5.465,0,0,1,4.042-4.979c.266-.077.521-.189.783-.283Z" transform="translate(-921.646 -0.016)" fill="#ed1c24"/>
      <path id="Path_29" data-name="Path 29" d="M1581.961-.016a14.1,14.1,0,0,1,2.491,1.133,16.991,16.991,0,0,1,2.109,2.109c-.511.378-.839.618-1.238.912-.272-.433-.489-.828-.751-1.188a3.686,3.686,0,0,0-4.188-1.354,3.158,3.158,0,0,0-2.1,3.263,3.126,3.126,0,0,0,1.862,2.682c1.416.755,2.909,1.373,4.278,2.2a5.394,5.394,0,0,1,1.513,7.817,6.139,6.139,0,0,1-4.336,2.478A6.62,6.62,0,0,1,1574.89,17l.9-.665a20.256,20.256,0,0,0,3.377,2.12,3.194,3.194,0,0,0,3.842-1.56,3.123,3.123,0,0,0-.757-4.151,20.651,20.651,0,0,0-2.993-1.836c-.523-.3-1.113-.485-1.639-.781-2.261-1.268-3.021-2.808-2.7-5.423A5.465,5.465,0,0,1,1578.9.259c.307-.084.607-.184.91-.279C1580.53-.016,1581.246-.016,1581.961-.016Z" transform="translate(-1236.996)" fill="#ed1c24"/>
      <path id="Path_30" data-name="Path 30" d="M258.055,2.151c-2.463,6.369-4.939,12.769-7.5,19.4-1.388-3.484-2.684-6.736-4.085-10.248-1.354,3.54-2.6,6.794-3.919,10.255-2.662-6.575-5.252-12.964-7.886-19.466h3.658q2.536,6.475,5.087,12.983l.275.006c.665-1.742,1.354-3.475,1.969-5.235.1-.277-.1-.689-.232-1.01-.895-2.212-1.806-4.415-2.759-6.73h3.628l5.127,13c.249-.571.4-.873.515-1.186,1.309-3.508,2.649-7.007,3.889-10.54C256.214,2.256,256.735,1.671,258.055,2.151Z" transform="translate(-184.318 -1.573)" fill="#ed1c24"/>
      <path id="Path_31" data-name="Path 31" d="M153.51,21.3V2.144c3.967.021,7.946-.466,11.647,1.465a9.25,9.25,0,0,1,4.876,9.69c-.566,4.2-2.937,6.889-6.893,7.725a15.133,15.133,0,0,1-2.875.26C158.058,21.319,155.846,21.3,153.51,21.3Zm3.518-17.677v16.2c1.382,0,2.7.1,4-.021a5.274,5.274,0,0,0,4.6-3.776,12.422,12.422,0,0,0,.635-5.8C165.785,5.485,162.338,2.9,157.028,3.618Z" transform="translate(-120.577 -1.669)" fill="#ed1c24"/>
      <path id="Path_32" data-name="Path 32" d="M1420.564,1.54c3.158.148,6.168.077,9.111.485,2.864.395,4.245,2.272,4.321,5.018a4.23,4.23,0,0,1-3.806,4.63c-.309.054-.62.1-1.154.182,1.677,2.993,3.286,5.861,5.016,8.944-1.341,0-2.519.015-3.7-.019-.146,0-.324-.266-.418-.444q-2.356-4.444-4.687-8.9c-.028-.051,0-.135.009-.2,4.612-.935,5.833-2.139,5.252-5.189-.479-2.508-2.939-3.7-6.443-3.066V20.839a24.715,24.715,0,0,1-2.954-.049c-.221-.028-.521-.674-.523-1.036-.034-4.857-.024-9.716-.024-14.573Z" transform="translate(-1115.809 -1.225)" fill="#ed1c24"/>
      <path id="Path_33" data-name="Path 33" d="M429.59,2.116a23.9,23.9,0,0,1,2.778.036c.339.039.691.442.931.759q4.264,5.638,8.491,11.3a2.6,2.6,0,0,0,.944.847V2.165h1.654V3.438c0,5.5.009,11-.015,16.5,0,.442-.12,1.169-.375,1.266a1.482,1.482,0,0,1-1.832-.637c-3.332-4.507-6.715-8.978-10.081-13.46-.227-.3-.468-.6-.884-1.133V21.211l-1.611.077Z" transform="translate(-337.43 -1.66)" fill="#ed1c24"/>
      <path id="Path_34" data-name="Path 34" d="M1486.771,182.2c-2.652,1.512-3.334.9-3.536-.307a18.851,18.851,0,0,1-2.441,1.231c-1.156.393-1.63.06-1.886-1.156-1.3.538-2.336,2.4-4.007.914-2.993,1.746-4.368,4.891-6.569,7.3a38.371,38.371,0,0,1-2.84,3.051c-.414.363-1.208.292-1.83.418a4.682,4.682,0,0,1-.054-1.881,10.587,10.587,0,0,1,1.639-2.615,19.016,19.016,0,0,1,6.363-5.477,3.032,3.032,0,0,0,1.826-2.066c-.094-.064-.187-.131-.281-.2-.7.474-1.388.968-2.1,1.414-1.266.794-2.321.929-2.733.277-.635-1,.006-1.841.562-2.628a8.9,8.9,0,0,1,5.342-3.69,3.937,3.937,0,0,1,1.06-.124c.839.036,1.195.65.682,1.294a8.7,8.7,0,0,1-1.532,1.238l-.264-.264.3-1.025c-1.984-.365-5.086,2.3-5.029,4.484a7.432,7.432,0,0,0,1.581-.472c1.023-.579,1.974-1.287,2.995-1.873a3.344,3.344,0,0,1,1.141-.184,5.421,5.421,0,0,1,.011,1.178,3.9,3.9,0,0,1-.468.942l.217.217c.266-.315.53-.633.8-.944,1.146-1.317,2.227-2.7,3.46-3.924a3.326,3.326,0,0,1,3.158-.944c.348.079.847.307.918.564.082.294-.238.7-.384,1.053-.062-.131-.122-.264-.184-.395a4.055,4.055,0,0,0-1.534-.144,8.793,8.793,0,0,0-4.769,4.093.819.819,0,0,0-.1.3,1.864,1.864,0,0,0,.109.431c2.356-.635,3.731-2.883,5.88-3.759l.288.255-2.169,3.094c.109.114.217.23.326.343.423-.2.852-.378,1.266-.586.787-.4,1.586-.783,2.345-1.231a2.314,2.314,0,0,0,.676-.759c.425-.656.764-1.377,1.244-1.989.182-.234.657-.24,1-.35a2.779,2.779,0,0,1-.257.963c-.856,1.141-1.77,2.24-2.652,3.362a3.89,3.89,0,0,0-.253.742,5.285,5.285,0,0,0,1.774-.513,10.64,10.64,0,0,0,2.177-2.313c2.1-3.282,4.132-6.61,6.966-9.339a25.324,25.324,0,0,1,2.77-2.349c.369-.264.976-.193,1.476-.275a4.414,4.414,0,0,1-.1,1.585,8.922,8.922,0,0,1-1.457,2.233c-1.924,2.107-3.907,4.164-5.893,6.213-1,1.025-2.074,1.965-3.068,2.991a9.055,9.055,0,0,0-.925,1.375c.066.112.135.221.2.333a5.276,5.276,0,0,0,1.435-.515c1.38-1.015,2.694-2.12,4.05-3.169.459-.354.97-.644,1.454-.961.064.069.129.137.193.208a3.116,3.116,0,0,1-.375.669,20.233,20.233,0,0,1-6.159,4.567C1487.533,183.63,1487,183.339,1486.771,182.2Zm4.078-5.087c2.9-1.755,6.861-6.532,6.8-8.051C1495.093,171.587,1492.332,173.822,1490.849,177.117Zm-21.406,9.75c-1.8,1.594-3.866,2.978-4.81,5.29l.425.356A15.355,15.355,0,0,0,1469.443,186.868Z" transform="translate(-1149.547 -131.653)"/>
      <path id="Path_35" data-name="Path 35" d="M959.514,166.639c1.193,0,2.081-.047,2.958.026.318.026.611.343.914.526a3.273,3.273,0,0,1-.875.528,3.094,3.094,0,0,1-1.279.015,3.561,3.561,0,0,0-4.166,2.083c-.59,1.06-1.339,2.034-2.014,3.046.086.069.172.137.26.206l.775-.433c-.556,1.69-2.757,3.454-4.207,3.242,1.388-2.915,3.435-5.34,5.3-8.135-1.969,0-3.737-.021-5.5.026-.242.006-.532.315-.7.553a17.715,17.715,0,0,0-1.656,2.495c-.453.933-.663,1.984-1.034,2.963a17.87,17.87,0,0,1-1.292,2.986,1.157,1.157,0,0,1-1.772.35c-.7-.534-.541-1.165-.142-1.8.075-.12.15-.242.225-.365,1.3-2.059,1.206-2.817-.736-4.319a13.491,13.491,0,0,0-7.753-2.731,14.08,14.08,0,0,1-1.787-.345,2.486,2.486,0,0,1,2.675-.817,40.481,40.481,0,0,1,5.554,1.836,34.3,34.3,0,0,1,4.067,2.482c.742-.972,1.547-2.025,2.534-3.314-1.74,0-3.184.017-4.628-.006a26.193,26.193,0,0,1-2.988-.167c-.352-.047-.656-.429-.985-.659.339-.176.678-.5,1.019-.5q3.8-.042,7.609.043a1.453,1.453,0,0,0,1.4-.723c1.244-1.832,2.51-3.649,3.823-5.432a5.5,5.5,0,0,1,1.469-1.356c.221-.139.7.12,1.053.2a2.972,2.972,0,0,1-.315.892c-1.63,2.062-3.289,4.1-4.939,6.151.043.127.088.253.131.38,1.761,0,3.523.024,5.284-.026.245-.006.536-.322.712-.564,1.836-2.551,3.647-5.117,5.479-7.669a1.871,1.871,0,0,1,.74-.725,2.851,2.851,0,0,1,1.081.069,2.449,2.449,0,0,1-.217.845c-1.648,2.246-3.323,4.471-4.992,6.7C960.3,165.588,960,165.985,959.514,166.639Z" transform="translate(-734.438 -123.753)"/>
      <path id="Path_36" data-name="Path 36" d="M578.145,2.48c.33,1-.036,1.3-.95,1.285-2.353-.034-4.707-.011-7.14-.011v7.133h7.581v1.334h-7.571v7.991h8.053c.356,1.055.066,1.409-.944,1.394-3.216-.045-6.432-.015-9.647-.019-.313,0-.626-.041-1-.064V2.482C570.406,2.48,574.247,2.48,578.145,2.48Z" transform="translate(-444.992 -1.964)" fill="#ed1c24"/>
      <path id="Path_37" data-name="Path 37" d="M1506.6,20.235h8.3v1.287H1503.24V2.48h11.653c.021.354.043.7.075,1.223h-8.358c0,2.347-.021,4.516.036,6.68,0,.184.536.5.828.506,1.858.047,3.718.021,5.576.028.386,0,.77.032,1.225.051.022.416.039.757.062,1.259h-5.61c-2.13,0-2.13,0-2.13,2.16C1506.6,16.279,1506.6,18.166,1506.6,20.235Z" transform="translate(-1180.75 -1.964)" fill="#ed1c24"/>
      <path id="Path_38" data-name="Path 38" d="M1050.376,185.988a12.777,12.777,0,0,1-1.512.875,4.527,4.527,0,0,1-1.626.405c-.706.013-1.053-.42-.783-1.148.781-2.1,4.1-5.576,7.112-5.762a1.631,1.631,0,0,1,1.2.42c.159.182-.047.772-.212,1.122-.3.639-.712.532-1.178.1a1.154,1.154,0,0,0-.83-.35c-1.63.33-4.786,3.2-5.417,5a7.442,7.442,0,0,0,1.562-.59c1.381-.946,2.709-1.969,4.072-2.943a5.926,5.926,0,0,1,.882-.438c.088.109.174.221.262.33-.45.566-.912,1.124-1.345,1.7-.395.528-.762,1.079-1.281,1.824,2.177-.221,5.526-2.913,5.872-4.5-.272-.079-.547-.159-1.094-.32a14.169,14.169,0,0,1,1.708-.839,3.712,3.712,0,0,1,1.1-.026,4.169,4.169,0,0,1-.221,1.191,16.4,16.4,0,0,1-1.013,1.51,5.1,5.1,0,0,0-.3.637c.073.09.146.178.217.268l3.746-2.712.279.341c-.5.708-1,1.416-1.68,2.381,1.774-.541,2.559-2.3,4.2-2.39l.328.281q-1.013,1.619-2.029,3.235l.154.238q1.078-.814,2.158-1.628a33.84,33.84,0,0,1,3.673-2.7,6.436,6.436,0,0,1,2.926-.463c-2.319,1.135-4.913,1.871-5.608,5.046a4.968,4.968,0,0,0,.867-.285,15.938,15.938,0,0,0,5.265-4.314c2.07-2.866,4.145-5.732,6.178-8.624.412-.586.8-.991,1.648-.7a6.789,6.789,0,0,1-.354.68c-3.111,4.666-6.241,9.321-9.328,14a1.359,1.359,0,0,1-1.7.639l.89-1.789-.238-.2c-.418.287-.83.581-1.255.86a11.529,11.529,0,0,1-1.36.852c-1.077.506-1.534.275-1.881-.862-.071-.232-.172-.455-.335-.875a15.219,15.219,0,0,1-1.562,1.148,3.725,3.725,0,0,1-1.628.571c-.178,0-.375-.835-.622-1.427-1.279.187-2.045,1.9-3.964,1.77.6-.845,1.04-1.47,1.484-2.094l-.112-.129-4.063,2.911c-.116-.109-.23-.221-.345-.33l1.088-1.63-.084-.148c-.343.2-.691.388-1.03.592a4.716,4.716,0,0,1-.91.558,15.7,15.7,0,0,1-1.712.348C1050.556,187.12,1050.479,186.636,1050.376,185.988Z" transform="translate(-821.887 -135.171)"/>
      <path id="Path_39" data-name="Path 39" d="M81.407,20.215c-1.229,0-2.255.045-3.274-.032-.247-.019-.562-.393-.68-.671-.5-1.18-.978-2.375-1.392-3.587A1.1,1.1,0,0,0,74.8,15.09c-1.607.043-3.216.062-4.82-.006a1.2,1.2,0,0,0-1.377.985c-.345,1.049-.841,2.049-1.154,3.1-.3,1.021-.9,1.236-1.976.931C68.047,13.7,70.6,7.345,73.26.74Zm-6.234-6.339c-.94-2.351-1.834-4.585-2.843-7.105-1.01,2.553-1.894,4.782-2.812,7.105Z" transform="translate(-51.425 -0.597)" fill="#ed1c24"/>
      <path id="Path_40" data-name="Path 40" d="M953.842,20.229c-1.182,0-2.148.06-3.1-.034a1.329,1.329,0,0,1-.865-.71c-.536-1.2-.935-2.469-1.487-3.666a1.374,1.374,0,0,0-.985-.676c-1.748-.069-3.5-.069-5.252,0a1.375,1.375,0,0,0-.983.678,24.413,24.413,0,0,0-1.322,3.385c-.313,1.062-.927,1.188-1.952.888L945.681.75C948.442,7.338,951.1,13.682,953.842,20.229Zm-9.081-13.44c-1.013,2.551-1.9,4.773-2.817,7.086H947.6C946.666,11.539,945.775,9.32,944.761,6.789Z" transform="translate(-736.692 -0.605)" fill="#ed1c24"/>
      <path id="Path_41" data-name="Path 41" d="M349.417.74c2.765,6.608,5.408,12.923,8.139,19.447-1.244,0-2.36.036-3.469-.034-.189-.013-.4-.453-.515-.732-.487-1.188-.972-2.379-1.4-3.589a.98.98,0,0,0-1.109-.74c-1.716.034-3.432.039-5.149,0a.965.965,0,0,0-1.073.783c-.4,1.146-.92,2.248-1.283,3.4-.317,1.01-.918,1.109-1.92.787Zm1.92,13.144c-.959-2.392-1.849-4.617-2.849-7.11l-2.817,7.11Z" transform="translate(-268.348 -0.597)" fill="#ed1c24"/>
      <path id="Path_42" data-name="Path 42" d="M1068.51,2.44h3.415V20.152h8.167c.328.983.2,1.435-.875,1.422-3.248-.043-6.5-.013-9.746-.019-.311,0-.622-.045-.959-.073C1068.51,15.1,1068.51,8.8,1068.51,2.44Z" transform="translate(-839.282 -1.932)" fill="#ed1c24"/>
      <path id="Path_43" data-name="Path 43" d="M1387.094,176.443a40.711,40.711,0,0,1-4.411-.757c-3.581-1.015-5.093-3.746-4.138-7.352a11.1,11.1,0,0,1,4.966-6.848c3.707-2.306,7.62-3.969,12.093-3.6a20.568,20.568,0,0,1,4.145.953,27.108,27.108,0,0,1,3.044,1.227,3.4,3.4,0,0,1,1.989,3.181,7.982,7.982,0,0,1-1.673,5.2,17.626,17.626,0,0,1-7.243,5.694A20.348,20.348,0,0,1,1387.094,176.443Zm15.169-15.48a15.643,15.643,0,0,1-.77,1.9c-.11.2-.519.223-.794.326-.084-.257-.294-.553-.23-.768a1.856,1.856,0,0,0-.811-2.242,6.862,6.862,0,0,0-2.315-1.034c-5.256-1.049-9.864.508-14.047,3.651a10.16,10.16,0,0,0-3.512,5.011,5.175,5.175,0,0,0,3.031,6.777,11.356,11.356,0,0,0,6.4.77,20.6,20.6,0,0,0,11.6-6.406,9.6,9.6,0,0,0,1.914-3.287A5.13,5.13,0,0,0,1402.263,160.962Z" transform="translate(-1082.585 -123.989)"/>
      <path id="Path_44" data-name="Path 44" d="M1252.351,2.46V3.741c-1.326,0-2.6.047-3.874-.017-.882-.045-1.163.242-1.156,1.141.039,5.106.019,10.214.019,15.32V21.5h-3.4V3.739c-1.394,0-2.7-.034-4,.011-.972.034-1.2-.38-.9-1.289Z" transform="translate(-973.13 -1.948)" fill="#ed1c24"/>
      <path id="Path_45" data-name="Path 45" d="M646.718,20.175h8.3c.021.446.041.815.064,1.287h-11.7V2.44h3.34C646.718,8.329,646.718,14.171,646.718,20.175Z" transform="translate(-505.356 -1.932)" fill="#ed1c24"/>
      <path id="Path_46" data-name="Path 46" d="M1245.841,167.893a3.053,3.053,0,0,1-.528.6c-4.344,2.918-8.939,4.971-14.361,3.962-1.731-.322-3.428-.85-3.887-2.851a4.269,4.269,0,0,1,2.06-4.793c1.493-.959,3.124-1.706,4.7-2.542a6.784,6.784,0,0,0,1.581-1.1,4.543,4.543,0,0,1-1.133-.579,2.663,2.663,0,0,1,.167-4.4,16.542,16.542,0,0,1,9.5-3.184,16.053,16.053,0,0,1,7.781,1.053,11.152,11.152,0,0,1,2.323,1.491.978.978,0,0,1,0,1.59c-.509.491-.895.36-1.261-.26a3.149,3.149,0,0,0-1.18-1.347,12.921,12.921,0,0,0-3.373-.963,18.816,18.816,0,0,0-10.2,1.156,10.74,10.74,0,0,0-2.557,1.708,1.8,1.8,0,0,0-.465,2.336,2.138,2.138,0,0,0,2.233,1.33c.6-.077,1.206-.165,1.811-.182a5.237,5.237,0,0,1,1.058.176c.017.142.036.281.054.423a6.694,6.694,0,0,1-1.686.427c-3.085-.034-5.531,1.47-7.9,3.171a7.081,7.081,0,0,0-1.174,1.094,2.894,2.894,0,0,0,1.18,4.919,9.633,9.633,0,0,0,6.631.105c2.351-.8,4.589-1.933,6.878-2.92.532-.23,1.064-.455,1.6-.682C1245.738,167.723,1245.789,167.809,1245.841,167.893Z" transform="translate(-963.721 -120.152)"/>
      <path id="Path_47" data-name="Path 47" d="M1029.814,21.59h-3.284V2.58h3.284Z" transform="translate(-806.308 -2.042)" fill="#ed1c24"/>
      <path id="Path_48" data-name="Path 48" d="M1148.747,206.376c-.609,1.536-2.278,2.059-2.349,3.7,2.939-1.171,4.745-3.952,7.461-5.406.1.073.2.144.3.217a6.645,6.645,0,0,1-.551,1.4c-.884,1.3-1.841,2.544-2.748,3.825-.2.275-.491.682-.412.914.373,1.073-.386,1.36-1.047,1.8a6.948,6.948,0,0,0-1.5,1.283c-2.062,2.506-4.044,5.08-6.142,7.556a9.848,9.848,0,0,1-2.283,1.733,1.024,1.024,0,0,1-.959-.041,1.051,1.051,0,0,1-.247-.944,14.411,14.411,0,0,1,1.313-2.789,20.47,20.47,0,0,1,7.283-6.5,7.673,7.673,0,0,0,3.053-3.765l-.187-.212c-.528.38-1.04.783-1.589,1.131a13.868,13.868,0,0,1-2.214,1.266,1.4,1.4,0,0,1-1.231-.27,1.181,1.181,0,0,1-.056-1.15c.892-1.234,1.858-2.418,2.868-3.557C1147.7,206.358,1148.213,206.446,1148.747,206.376Zm-3.862,9.617c-2.077,1.5-4.14,3.012-4.76,5.713C1142.395,220.376,1143.686,218.222,1144.885,215.993Z" transform="translate(-894.051 -160.778)"/>
      <path id="Path_49" data-name="Path 49" d="M1319.177,184.837c2.463-.886,3.81-3.5,6.55-4.559a4.068,4.068,0,0,1-.356.907,17.383,17.383,0,0,1-5.773,4.514c-1.259.588-1.909.127-1.673-1.244a8.331,8.331,0,0,1,.989-2.679,41.219,41.219,0,0,1,8.354-10.1,8.885,8.885,0,0,1,1.9-1.176,2.428,2.428,0,0,1,.911-.067,3.035,3.035,0,0,1-.036,1,6.418,6.418,0,0,1-.792,1.388c-2.409,3.287-4.885,6.5-8.367,8.785a6.239,6.239,0,0,0-1.553,1.6,4.818,4.818,0,0,0-.461,1.4C1318.972,184.694,1319.075,184.767,1319.177,184.837Zm2.7-5.359c1.993-1.079,6.65-6.646,6.826-8.111C1326.234,173.892,1323.751,176.271,1321.874,179.478Z" transform="translate(-1035.153 -133.883)"/>
      <path id="Path_50" data-name="Path 50" d="M1576.521,200.81c.028-.335-.071-.794.109-.976a5.02,5.02,0,0,1,1.234-.7c.084.114.169.227.253.343q-.592.718-1.186,1.435C1576.8,200.874,1576.658,200.842,1576.521,200.81Z" transform="translate(-1238.308 -156.426)"/>
    </g>
  </g>
</svg>
