<?xml version="1.0" encoding="UTF-8"?>
<svg width="240px" height="44px" viewBox="0 0 240 44" version="1.1" xmlns="http://www.w3.org/2000/svg" xmlns:xlink="http://www.w3.org/1999/xlink">
    <!-- Generator: Sketch 58 (84663) - https://sketch.com -->
    <title>Mr Hamdy El Ogail</title>
    <desc>Created with Sketch.</desc>
    <g id="Page-1" stroke="none" stroke-width="1" fill="none" fill-rule="evenodd">
        <g id="SEARCH---BROWSE--PAGE" transform="translate(-124.000000, -30.000000)">
            <g id="Mr-Hamdy-El-Ogail" transform="translate(124.000000, 30.000000)">
                <path d="M159.579184,31.5244898 C158.010612,30.9122449 155.638163,32.9785714 155.332041,33.3612245 C155.025918,33.7438776 153.303673,35.5420408 154.03102,36.0783673 C155.063878,36.7671429 156.517959,35.1214286 156.709592,35.312449 C156.900612,35.5040816 156.364898,36.1163265 156.67102,36.3459184 C157.359796,37.0732653 159.158571,35.1979592 159.388163,35.3895918 C159.617755,35.5806122 158.278163,36.422449 158.699388,36.7285714 C159.12,37.0346939 161.56898,34.6236735 161.760612,34.8153061 C161.951633,35.0069388 160.459592,36.0012245 160.956735,36.3844898 C161.45449,36.7671429 163.176122,34.9304082 163.482245,35.1214286 C163.788367,35.312449 163.329184,35.9253061 163.711837,36.154898 C164.400612,36.6520408 165.701633,34.8918367 166.007755,35.044898 C166.313878,35.1979592 166.160816,35.9253061 166.50551,36.1928571 C167.423878,36.8436735 169.14551,34.8153061 169.413673,34.9683673 C169.681224,35.1214286 168.915918,36.2308163 168.686327,36.3844898 C169.06898,36.4604082 169.719796,36.3844898 169.719796,36.3844898 L176.798571,25.7846939 L175.918776,25.7846939 C175.918776,25.7846939 171.097347,33.0165306 169.949388,33.6673469 C169.681224,33.934898 167.347347,35.5806122 167.117755,35.3895918 C167.500408,32.672449 171.135306,32.2132653 171.135306,32.0222449 C171.135306,31.8306122 168.648367,31.3334694 166.237347,34.3181633 C165.969796,34.5477551 164.974898,35.2744898 164.783265,35.16 C164.592245,35.044898 166.50551,33.1702041 166.084286,32.672449 C165.625102,32.1367347 163.558776,34.4712245 163.291224,34.2416327 C163.023061,34.0120408 164.477143,32.8255102 164.247551,32.5573469 C163.864898,31.9457143 161.913673,34.5477551 161.377959,34.1644898 C161.109796,33.934898 163.061633,32.1753061 162.410816,31.7161224 C162.066735,31.4865306 160.574082,32.2132653 160.612653,32.4428571 C160.689184,32.672449 160.995306,32.404898 161.224898,32.5573469 C161.798571,33.2846939 157.78102,36.0397959 157.474898,35.6957143 C156.977143,35.16 159.388163,33.5142857 158.92898,33.1316327 C158.660816,32.9406122 158.278163,33.055102 158.316735,33.2846939 C158.048571,33.5908163 155.102449,36.0012245 154.375102,35.6571429 C154.184082,35.427551 156.900612,32.2897959 158.507755,32.2518367 C158.622857,32.5573469 158.775918,32.7869388 159.00551,32.8255102 C159.579184,32.9406122 159.349592,32.404898 159.617755,32.404898 C159.961837,32.1367347 159.579184,31.5244898 159.579184,31.5244898" id="Fill-1" fill="#1A1919"></path>
                <path d="M172.053673,38.1446939 C172.053673,38.1446939 168.877347,40.2489796 168.533265,42.2773469 C169.336531,42.66 172.244694,38.2977551 172.053673,38.1446939 Z M173.890408,31.6781633 C173.890408,31.6781633 174.349592,31.8306122 174.540612,31.7540816 C174.655714,32.3669388 172.512857,33.6293878 172.89551,34.2416327 C173.584286,34.8153061 177.640408,30.1855102 178.176122,30.6446939 C178.788367,31.0653061 175.956735,34.2416327 175.650612,34.8153061 C176.377347,35.8867347 174.694286,36.1928571 174.387551,36.4610204 C171.709592,40.4026531 168.341633,44.4202041 167.461837,43.3487755 C166.81102,42.6214286 168.992449,38.6418367 173.431224,36.27 C174.043469,36.1163265 175.53551,33.8969388 175.383061,33.6293878 C175.076327,33.3997959 172.627959,36.2314286 171.747551,35.1220408 C170.982245,34.2036735 173.890408,31.6781633 173.890408,31.6781633 L173.890408,31.6781633 Z" id="Fill-2" fill="#1A1919"></path>
                <path d="M151.733878,33.2859184 C151.487143,33.7389796 151.282041,34.1914286 151.282041,34.1914286 C151.611429,34.6444898 151.77551,33.6153061 152.022245,33.9446939 C152.145306,34.3561224 149.800408,36.8253061 149.141633,36.2504082 C148.863061,36.0116327 150.688776,33.3991837 152.692653,30.6465306 L148.694082,30.6514286 C147.582857,32.2120408 146.646735,33.6446939 146.630204,34.0683673 C146.671224,36.8663265 144.902449,37.7308163 144.408367,36.99 C143.337551,36.0857143 145.931633,34.8091837 144.943469,33.6153061 C143.749592,31.5991837 139.880816,30.6110204 138.481224,30.7757143 C137.616122,30.7346939 137.657755,30.3232653 137.657755,30.3232653 C138.110204,29.4171429 142.061633,29.8291837 145.84898,32.9565306 C146.062041,32.7893878 146.785102,31.8257143 147.629388,30.6538776 L143.775918,30.6636735 C141.958163,30.6257143 141.728571,30.3385714 141.728571,29.974898 C141.728571,29.5157143 143.909388,29.6877551 144.330612,29.6877551 L148.279592,29.7446939 C149.564082,27.9367347 150.899388,25.9983673 151.076327,25.7540816 C151.405714,25.3016327 152.186939,24.1487755 152.845714,24.6018367 C153.54551,25.0132653 152.557347,25.4663265 152.351633,25.7540816 C152.246327,25.9016327 150.765306,27.8008163 149.336327,29.7606122 L153.296327,29.82 C155.254898,27.145102 157.199388,24.5485714 157.372653,24.0661224 C157.66102,23.5726531 158.237755,23.4079592 158.567143,23.6546939 C158.896531,23.9020408 158.566531,24.0661224 158.319796,24.5191837 C158.062041,24.9171429 156.046531,27.5528571 154.310816,29.8353061 L156.135306,29.8604082 C156.49898,29.8604082 156.938571,29.8408163 156.996122,30.3195918 C156.996122,30.3195918 157.053673,30.6446939 156.307347,30.6636735 C156.091224,30.6532653 155.068776,30.6483673 153.693673,30.6471429 C152.651633,32.0197959 151.823265,33.1218367 151.733878,33.2859184" id="Fill-3" fill="#1A1919"></path>
                <path d="M189.464082,28.6928571 C189.502653,28.0420408 187.283265,28.7693878 186.78551,28.5012245 C183.915306,26.7030612 187.588776,23.9479592 192.946531,23.9479592 C197.193673,23.9479592 198.456735,25.3255102 198.074082,25.7081633 C198.609184,26.55 199.222041,25.7081633 199.26,25.3634694 C199.451633,24.5981633 196.81102,22.7614286 192.754898,22.9910204 C187.89551,22.9910204 184.615714,25.3677551 184.681224,26.4734694 C184.790204,28.3310204 185.981633,28.3867347 185.981633,28.8459184 C185.981633,29.305102 180.433469,30.567551 180.433469,33.4757143 C180.433469,34.05 179.936327,36.5369388 185.407959,36.5369388 C188.622245,36.5369388 193.787755,33.5522449 193.367143,33.0930612 C192.907959,32.6338776 189.273061,35.8102041 185.292857,35.8102041 C181.543469,35.8102041 181.466939,33.934898 181.466939,33.4377551 C181.466939,31.294898 186.479388,29.2285714 186.977143,29.2285714 C189.770204,29.2285714 189.464082,28.6928571 189.464082,28.6928571" id="Fill-4" fill="#1A1919"></path>
                <path d="M201.249796,26.1293878 C201.249796,26.1293878 197.155714,30.0710204 196.543469,31.7926531 C196.773061,32.0222449 201.747551,26.5885714 201.249796,26.1293878 Z M195.892653,33.1316327 C193.979388,34.6628571 194.553673,35.3130612 194.553673,35.3130612 C195.203878,35.9253061 198.494694,31.7540816 199.106939,32.4814286 C199.451633,32.8640816 194.878776,36.865102 193.979388,36.0783673 C193.137551,35.16 194.783265,32.787551 194.974286,32.404898 C195.165918,32.0222449 200.186939,25.1920408 202.053673,25.4791837 C202.550816,25.555102 202.015102,26.5120408 201.747551,26.9326531 C201.479388,27.3538776 198.380204,31.7540816 195.892653,33.1316327 L195.892653,33.1316327 Z" id="Fill-5" fill="#1A1919"></path>
                <path d="M219.00551,25.7846939 C219.00551,25.7846939 218.661429,28.3867347 217.665918,27.0471429 C218.393265,26.4355102 217.857551,24.3691837 213.801429,24.3691837 C209.439184,24.2161224 206.109796,27.0471429 205.497551,27.5834694 C204.885918,28.1191837 201.288367,32.5193878 205.383061,34.9683673 C205.956735,35.2744898 210.587143,37.6855102 217.015714,32.3277551 C220.995306,29.2285714 219.311633,25.7846939 219.00551,25.7846939 Z M218.622857,25.0579592 C222.143265,24.9428571 222.640408,32.9406122 211.199388,36.154898 C199.184082,37.6855102 202.283265,28.7693878 205.842245,26.4355102 C213.84,21.1163265 218.622857,25.0579592 218.622857,25.0579592 L218.622857,25.0579592 Z" id="Fill-6" fill="#1A1919"></path>
                <path d="M238.673265,26.0528571 C238.673265,26.0528571 233.660816,30.4916327 233.851837,31.8691837 C236.262857,30.032449 239.017959,26.55 238.673265,26.0528571 Z M219.31102,38.1446939 C219.31102,38.1446939 215.523061,41.3204082 216.058776,42.1242857 C216.555918,42.544898 219.693673,38.3357143 219.31102,38.1446939 Z M223.290612,31.294898 C224.706735,31.6010204 223.176122,33.055102 222.678367,32.9785714 C221.875102,32.9020408 223.137551,32.3283673 222.525306,32.0602041 C220.497551,32.2518367 218.737347,34.8153061 219.23449,35.16 C219.885306,35.6571429 222.487347,33.3612245 222.87,33.3612245 C224.017959,33.6673469 222.601837,35.044898 222.793469,35.1214286 C223.367143,35.427551 225.25102,30.7316327 227.95898,31.1038776 C229.466939,31.2716327 228.494694,32.3283673 228.188571,32.2518367 C227.882449,32.1753061 228.303673,31.8691837 228.074082,31.7161224 C225.701633,31.8306122 223.673265,34.8538776 223.902857,35.044898 C224.591633,35.6957143 227.576327,32.2897959 228.112041,32.672449 C228.647755,33.0171429 226.466939,34.4326531 226.887551,35.0834694 C227.461837,35.3510204 228.839388,33.6673469 229.566122,33.9355102 C229.834286,33.7059184 230.637551,31.41 231.364898,31.7161224 C231.824082,31.8691837 231.479388,32.2518367 231.249796,32.4814286 C231.020204,32.7110204 229.106939,34.8918367 229.336531,35.0834694 C230.101837,35.5426531 231.173265,34.3946939 231.517959,34.0120408 C231.862041,33.6293878 234.349592,29.3436735 235.267959,28.5397959 C235.688571,28.0806122 238.673265,24.4071429 239.668163,25.0959184 C240.816122,25.9763265 235.727143,30.9508163 235.42102,31.2569388 C235.114898,31.5630612 231.555918,34.3946939 231.900612,35.1214286 C232.627347,35.8487755 236.300816,31.677551 236.836531,32.0987755 C237.257755,32.5579592 232.550816,36.2314286 231.67102,35.9253061 C230.714082,35.6191837 231.402857,35.2744898 231.173265,35.1214286 C230.943673,34.9683673 230.216939,36.0018367 229.222041,35.6957143 C228.456735,35.5806122 228.915918,34.8918367 228.686327,34.8538776 C228.456735,34.8153061 227.499796,36.1163265 226.160816,35.8102041 C225.356939,35.5806122 226.084286,35.16 225.739592,35.0069388 C225.39551,34.8538776 224.591633,36.1163265 223.788367,35.9632653 C223.176122,36.0397959 223.099592,35.5426531 222.907959,35.5426531 C222.716939,35.5426531 222.640408,36.1163265 222.448776,36.1163265 C222.257755,36.1163265 221.836531,36.2314286 221.64551,36.4989796 C221.492449,36.7671429 218.278163,40.8997959 217.856939,41.3589796 C217.436327,41.8181633 216.211837,43.5397959 215.254898,43.0040816 C213.839388,41.7030612 219.12,36.805102 219.961837,36.537551 C220.34449,36.3459184 222.295714,35.4661224 221.875102,34.6242857 C221.683469,34.3181633 219.579184,36.7671429 218.469184,35.8102041 C218.125102,35.5040816 218.278163,34.7773469 218.545714,34.3946939 C220.382449,31.3334694 223.290612,31.294898 223.290612,31.294898 L223.290612,31.294898 Z" id="Fill-7" fill="#1A1919"></path>
                <path d="M232.703878,29.7642857 C232.972041,29.9559184 232.81898,30.2234694 232.589388,30.3765306 C232.359796,30.5295918 232.130204,31.2183673 231.824082,30.9122449 C231.288367,29.9938776 232.703878,29.7642857 232.703878,29.7642857" id="Fill-8" fill="#1A1919"></path>
                <path d="M0.102244898,13.9683673 L0.102244898,0.77877551 L4.42346939,0.77877551 C6.06061224,0.77877551 7.29734694,1.10387755 8.13244898,1.75530612 C8.97428571,2.40612245 9.39489796,3.36673469 9.3955102,4.63591837 C9.3955102,5.58306122 9.09612245,6.32938776 8.49734694,6.8755102 C7.90591837,7.42102041 7.06040816,7.72346939 5.96204082,7.78285714 L9.45428571,13.9683673 L6.71204082,13.9683673 L3.17020408,7.27959184 C4.55816327,7.1877551 5.5377551,6.93122449 6.11020408,6.51 C6.68204082,6.08265306 6.96857143,5.42510204 6.96857143,4.53734694 C6.96857143,3.55714286 6.68571429,2.82734694 6.12,2.34734694 C5.55428571,1.86734694 4.69959184,1.62734694 3.55530612,1.62673469 L2.54877551,1.62673469 L2.54877551,13.9683673 L0.102244898,13.9683673" id="Fill-9" fill="#D8232A"></path>
                <path d="M12.5130612,9.62755102 L16.3506122,9.62755102 L14.4269388,4.81346939 L12.5130612,9.62755102 Z M9.6422449,13.9683673 L15.0581633,0.511836735 L20.6914286,13.9683673 L18.0869388,13.9683673 L16.7155102,10.4565306 L12.1677551,10.4565306 L10.8061224,13.9683673 L9.6422449,13.9683673 L9.6422449,13.9683673 Z" id="Fill-10" fill="#D8232A"></path>
                <path d="M25.0389796,1.76510204 L25.0389796,12.9820408 L26.4893878,12.9820408 C27.2846939,12.9820408 27.9391837,12.9128571 28.4522449,12.7744898 C28.9720408,12.63 29.402449,12.4102041 29.7446939,12.1138776 C30.2840816,11.64 30.6985714,10.9959184 30.987551,10.1804082 C31.2771429,9.35816327 31.4216327,8.41102041 31.4216327,7.33897959 C31.4216327,5.54326531 30.9514286,4.16571429 30.0110204,3.20571429 C29.0767347,2.24571429 27.7285714,1.76510204 25.9665306,1.76510204 L25.0389796,1.76510204 Z M22.6120408,13.9683673 L22.6120408,0.77877551 L25.8477551,0.77877551 C28.4191837,0.77877551 30.4285714,1.39040816 31.8759184,2.61367347 C33.3226531,3.83020408 34.0457143,5.51387755 34.0457143,7.66469388 C34.0457143,9.55836735 33.4542857,11.0846939 32.2702041,12.2418367 C31.0928571,13.3934694 29.5377551,13.9683673 27.6036735,13.9683673 L22.6120408,13.9683673 L22.6120408,13.9683673 Z" id="Fill-11" fill="#D8232A"></path>
                <polyline id="Fill-12" fill="#D8232A" points="45.4689796 14.2940816 42.6771429 7.24040816 39.9936735 14.2940816 34.5183673 0.77877551 37.1032653 0.77877551 40.6744898 9.92387755 42.1542857 6.04653061 39.9936735 0.77877551 42.5589796 0.77877551 46.0904082 9.76591837 49.4253061 0.77877551 50.697551 0.77877551 45.4689796 14.2940816"></polyline>
                <path d="M53.0889796,9.62755102 L56.9265306,9.62755102 L55.0028571,4.81346939 L53.0889796,9.62755102 Z M50.2181633,13.9683673 L55.6340816,0.511836735 L61.2673469,13.9683673 L58.6628571,13.9683673 L57.2914286,10.4565306 L52.7436735,10.4565306 L51.3820408,13.9683673 L50.2181633,13.9683673 L50.2181633,13.9683673 Z" id="Fill-13" fill="#D8232A"></path>
                <polyline id="Fill-14" fill="#D8232A" points="63.1487755 13.9683673 63.1487755 0.77877551 65.3883673 0.77877551 72.214898 9.88408163 72.214898 0.77877551 73.3891837 0.77877551 73.3891837 13.9683673 72.214898 13.9683673 64.3230612 3.46163265 64.3230612 13.9683673 63.1487755 13.9683673"></polyline>
                <polyline id="Fill-15" fill="#D8232A" points="83.2885714 13.9683673 83.2885714 0.77877551 91.4473469 0.77877551 91.4473469 1.76510204 85.735102 1.76510204 85.735102 6.58897959 91.0426531 6.58897959 91.0426531 7.58571429 85.735102 7.58571429 85.735102 12.9820408 91.4473469 12.9820408 91.4473469 13.9683673 83.2885714 13.9683673"></polyline>
                <polyline id="Fill-16" fill="#D8232A" points="102.72 12.9820408 102.72 13.9683673 94.5612245 13.9683673 94.5612245 0.77877551 97.0077551 0.77877551 97.0077551 12.9820408 102.72 12.9820408"></polyline>
                <path d="M120.610408,7.39836735 C120.610408,5.59653061 120.225918,4.13632653 119.456327,3.01836735 C118.686735,1.90040816 117.696735,1.34142857 116.486939,1.34081633 C115.283265,1.34081633 114.293265,1.90040816 113.517551,3.01836735 C112.747959,4.13632653 112.362857,5.59653061 112.362857,7.39836735 C112.362857,9.19408163 112.747959,10.6506122 113.517551,11.7685714 C114.293265,12.8871429 115.282653,13.4455102 116.486939,13.4455102 C117.69,13.4455102 118.676939,12.8902041 119.446531,11.7783673 C120.222245,10.6604082 120.610408,9.20081633 120.610408,7.39836735 Z M116.486939,14.2940816 C115.566122,14.2940816 114.70102,14.1293878 113.892245,13.8006122 C113.083469,13.4657143 112.356122,12.9759184 111.712041,12.3312245 C111.074082,11.6932653 110.587347,10.9530612 110.251837,10.1112245 C109.923061,9.26938776 109.758367,8.36571429 109.758367,7.39836735 C109.758367,6.41877551 109.926122,5.5077551 110.261633,4.66591837 C110.597143,3.82408163 111.086939,3.08755102 111.731633,2.45571429 C112.375714,1.8244898 113.106122,1.34081633 113.921633,1.00591837 C114.737143,0.663673469 115.591837,0.492857143 116.486939,0.492857143 C117.203265,0.492857143 117.900612,0.604897959 118.578367,0.828367347 C119.25551,1.05183673 119.889796,1.37755102 120.482449,1.80489796 C121.370204,2.44959184 122.05102,3.25469388 122.524286,4.22204082 C122.998163,5.18204082 123.23449,6.24122449 123.23449,7.39836735 C123.23449,8.37183673 123.063673,9.27979592 122.721429,10.1210204 C122.385918,10.9567347 121.896122,11.6932653 121.251429,12.3312245 C120.600612,12.9759184 119.870816,13.4657143 119.061429,13.8006122 C118.252653,14.1293878 117.394286,14.2940816 116.486939,14.2940816 L116.486939,14.2940816 Z" id="Fill-17" fill="#D8232A"></path>
                <path d="M136.648163,7.80244898 L136.648163,12.2516327 C135.871837,12.9293878 135.066122,13.4387755 134.23102,13.7810204 C133.395918,14.1226531 132.530816,14.2934694 131.636327,14.2940816 C129.670408,14.2940816 128.078571,13.6591837 126.862041,12.39 C125.644898,11.1140816 125.036939,9.44326531 125.036939,7.37816327 C125.036939,5.4122449 125.648571,3.7744898 126.871837,2.4655102 C128.101837,1.15040816 129.623878,0.492857143 131.439184,0.492244898 C132.544286,0.492244898 133.501224,0.719387755 134.31,1.17306122 C135.12551,1.62673469 135.799592,2.30755102 136.332245,3.2155102 L135.543061,3.7677551 C135.135306,2.96510204 134.62898,2.36387755 134.024082,1.9622449 C133.425306,1.56122449 132.731633,1.36102041 131.942449,1.36040816 C130.620612,1.36040816 129.571224,1.90653061 128.79551,2.99816327 C128.025918,4.08979592 127.641429,5.58 127.641429,7.46693878 C127.641429,9.2822449 128.009388,10.6965306 128.745918,11.7091837 C129.489184,12.7157143 130.521429,13.2183673 131.843878,13.2183673 C132.356939,13.2183673 132.833265,13.1393878 133.274082,12.9820408 C133.72102,12.8240816 134.106122,12.5938776 134.428163,12.2914286 L134.428163,7.80244898 L136.648163,7.80244898" id="Fill-18" fill="#D8232A"></path>
                <path d="M140.720204,9.62755102 L144.557755,9.62755102 L142.634082,4.81346939 L140.720204,9.62755102 Z M137.849388,13.9683673 L143.265306,0.511836735 L148.898571,13.9683673 L146.294082,13.9683673 L144.922653,10.4565306 L140.374898,10.4565306 L139.013265,13.9683673 L137.849388,13.9683673 L137.849388,13.9683673 Z" id="Fill-19" fill="#D8232A"></path>
                <polygon id="Fill-20" fill="#D8232A" points="150.878571 13.9683673 153.305327 13.9683673 153.305327 0.77877551 150.878571 0.77877551"></polygon>
                <polyline id="Fill-21" fill="#D8232A" points="165.219796 12.9820408 165.219796 13.9683673 157.06102 13.9683673 157.06102 0.77877551 159.507551 0.77877551 159.507551 12.9820408 165.219796 12.9820408"></polyline>
                <path d="M173.471633,11.4630612 C173.760612,12.0153061 174.129184,12.4463265 174.576122,12.7555102 C175.030408,13.0646939 175.516531,13.2189796 176.036327,13.2189796 C176.739796,13.2189796 177.312245,12.9991837 177.753061,12.5577551 C178.193878,12.1108163 178.413673,11.5389796 178.414286,10.8416327 C178.414286,9.73040816 177.430408,8.76979592 175.46449,7.96102041 C175.444286,7.95428571 175.431429,7.95122449 175.424694,7.95122449 C174.372245,7.51714286 173.622857,7.02734694 173.175306,6.48122449 C172.73449,5.93510204 172.514694,5.2444898 172.514694,4.40938776 C172.514694,3.26510204 172.896122,2.3277551 173.65898,1.59795918 C174.421837,0.861428571 175.408163,0.492857143 176.618571,0.492857143 C177.525918,0.492857143 178.318776,0.696734694 178.995918,1.1044898 C179.679796,1.5122449 180.186735,2.09081633 180.51551,2.84081633 L179.647347,3.42244898 C179.43,2.80469388 179.104286,2.33142857 178.670816,2.00204082 C178.236122,1.66653061 177.72,1.49938776 177.121837,1.49938776 C176.483265,1.49938776 175.960408,1.70632653 175.553265,2.12081633 C175.14551,2.52857143 174.941633,3.06428571 174.941633,3.72857143 C174.941633,4.25510204 175.109388,4.70204082 175.444286,5.07061224 C175.779796,5.43857143 176.407959,5.82 177.328776,6.21489796 C178.782245,6.83938776 179.739184,7.43816327 180.199592,8.01 C180.666122,8.58244898 180.899388,9.31591837 180.9,10.2104082 C180.9,11.3938776 180.488571,12.3704082 179.666939,13.14 C178.850816,13.9095918 177.81551,14.2940816 176.559184,14.2940816 C175.651837,14.2940816 174.868776,14.1195918 174.211224,13.7718367 C173.553673,13.4228571 172.981224,12.8840816 172.495102,12.1536735 L173.471633,11.4630612" id="Fill-22" fill="#D8232A"></path>
                <polyline id="Fill-23" fill="#D8232A" points="185.563469 13.9683673 185.563469 1.76510204 182.110408 1.76510204 182.110408 0.77877551 191.443469 0.77877551 191.443469 1.76510204 187.990408 1.76510204 187.990408 13.9683673 185.563469 13.9683673"></polyline>
                <path d="M203.456327,7.39836735 C203.456327,5.59653061 203.071837,4.13632653 202.302245,3.01836735 C201.532653,1.90040816 200.542653,1.34142857 199.332857,1.34081633 C198.129184,1.34081633 197.139184,1.90040816 196.363469,3.01836735 C195.593878,4.13632653 195.208776,5.59653061 195.208776,7.39836735 C195.208776,9.19408163 195.593878,10.6506122 196.363469,11.7685714 C197.139184,12.8871429 198.128571,13.4455102 199.332857,13.4455102 C200.535918,13.4455102 201.522857,12.8902041 202.292449,11.7783673 C203.068163,10.6604082 203.456327,9.20081633 203.456327,7.39836735 Z M199.332857,14.2940816 C198.412041,14.2940816 197.546939,14.1293878 196.738163,13.8006122 C195.929388,13.4657143 195.202041,12.9759184 194.557959,12.3312245 C193.92,11.6932653 193.433265,10.9530612 193.097755,10.1112245 C192.76898,9.26938776 192.604286,8.36571429 192.604286,7.39836735 C192.604286,6.41877551 192.772041,5.5077551 193.107551,4.66591837 C193.443061,3.82408163 193.932857,3.08755102 194.577551,2.45571429 C195.222245,1.8244898 195.952041,1.34081633 196.767551,1.00591837 C197.583061,0.663673469 198.437755,0.492857143 199.332857,0.492857143 C200.049796,0.492857143 200.746531,0.604897959 201.424286,0.828367347 C202.101429,1.05183673 202.735714,1.37755102 203.327755,1.80489796 C204.216122,2.44959184 204.896939,3.25469388 205.370204,4.22204082 C205.844082,5.18204082 206.080408,6.24122449 206.080408,7.39836735 C206.080408,8.37183673 205.909592,9.27979592 205.567347,10.1210204 C205.231837,10.9567347 204.742041,11.6932653 204.097347,12.3312245 C203.446531,12.9759184 202.716735,13.4657143 201.907347,13.8006122 C201.098571,14.1293878 200.240204,14.2940816 199.332857,14.2940816 L199.332857,14.2940816 Z" id="Fill-24" fill="#D8232A"></path>
                <path d="M208.83,13.9683673 L208.83,0.77877551 L213.151224,0.77877551 C214.788367,0.77877551 216.025102,1.10387755 216.860204,1.75530612 C217.702041,2.40612245 218.122653,3.36673469 218.123265,4.63591837 C218.123265,5.58306122 217.823878,6.32938776 217.225102,6.8755102 C216.633673,7.42102041 215.788163,7.72346939 214.689796,7.78285714 L218.182041,13.9683673 L215.439796,13.9683673 L211.897959,7.27959184 C213.285918,7.1877551 214.26551,6.93122449 214.837959,6.51 C215.409796,6.08265306 215.696327,5.42510204 215.696327,4.53734694 C215.696327,3.55714286 215.412857,2.82734694 214.847755,2.34734694 C214.282041,1.86734694 213.427347,1.62734694 212.283061,1.62673469 L211.276531,1.62673469 L211.276531,13.9683673 L208.83,13.9683673" id="Fill-25" fill="#D8232A"></path>
                <polyline id="Fill-26" fill="#D8232A" points="220.912041 13.9683673 220.912041 0.77877551 229.070816 0.77877551 229.070816 1.76510204 223.358571 1.76510204 223.358571 6.58897959 228.666122 6.58897959 228.666122 7.58571429 223.358571 7.58571429 223.358571 12.9820408 229.070816 12.9820408 229.070816 13.9683673 220.912041 13.9683673"></polyline>
                <path d="M232.451633,11.4630612 C232.740612,12.0153061 233.109184,12.4463265 233.556735,12.7555102 C234.010408,13.0646939 234.497143,13.2189796 235.016939,13.2189796 C235.720408,13.2189796 236.292245,12.9991837 236.733061,12.5577551 C237.173878,12.1108163 237.394286,11.5389796 237.394286,10.8416327 C237.394286,9.73040816 236.41102,8.76979592 234.44449,7.96102041 C234.424898,7.95428571 234.411429,7.95122449 234.405306,7.95122449 C233.352245,7.51714286 232.602857,7.02734694 232.155306,6.48122449 C231.715102,5.93510204 231.494694,5.2444898 231.494694,4.40938776 C231.494694,3.26510204 231.876122,2.3277551 232.63898,1.59795918 C233.401837,0.861428571 234.388163,0.492857143 235.598571,0.492857143 C236.506531,0.492857143 237.298776,0.696734694 237.976531,1.1044898 C238.659796,1.5122449 239.166735,2.09081633 239.49551,2.84081633 L238.627347,3.42244898 C238.41,2.80469388 238.084898,2.33142857 237.650816,2.00204082 C237.216735,1.66653061 236.7,1.49938776 236.101837,1.49938776 C235.463878,1.49938776 234.94102,1.70632653 234.533265,2.12081633 C234.12551,2.52857143 233.921633,3.06428571 233.921633,3.72857143 C233.921633,4.25510204 234.089388,4.70204082 234.424898,5.07061224 C234.759796,5.43857143 235.387959,5.82 236.308776,6.21489796 C237.762245,6.83938776 238.719184,7.43816327 239.179592,8.01 C239.646735,8.58244898 239.88,9.31591837 239.88,10.2104082 C239.88,11.3938776 239.469184,12.3704082 238.646939,13.14 C237.831429,13.9095918 236.79551,14.2940816 235.539796,14.2940816 C234.631837,14.2940816 233.849388,14.1195918 233.191224,13.7718367 C232.533673,13.4228571 231.961224,12.8840816 231.475102,12.1536735 L232.451633,11.4630612" id="Fill-27" fill="#D8232A"></path>
            </g>
        </g>
    </g>
</svg>